<svg xmlns="http://www.w3.org/2000/svg" viewBox="0 0 128 128" id="everything">
  <path d="m58.771 96.342-11.479-2.169-.183-.097-11.131-11.121a.402.402 0 0 1 .267-.688l.034.001 7.522.632q.197.017.393.017a5.436 5.436 0 0 0 5.207-4.733 4.609 4.609 0 0 0-2.906-5.083L29.65 67.646a.365.365 0 0 0-.1-.018l-6.286-.224a.355.355 0 0 1-.271-.143l-.876-1.191 1.104-.851a2 2 0 0 0 .347-2.825l-5.254-6.635a1.998 1.998 0 0 0-2.789-.343L.779 66.781a2 2 0 0 0-.347 2.825l5.254 6.635a1.946 1.946 0 0 0 2.622.432L23.042 94.86l.045.037 17.675 9.75.053.017 16.323 2.288a5.044 5.044 0 0 0 .701.049 5.224 5.224 0 0 0 5.123-4.766l.01-.1a5.3 5.3 0 0 0-4.2-5.792zm.212 5.486A1.236 1.236 0 0 1 57.839 103a1.054 1.054 0 0 1-.145-.01l-15.621-2.19-16.397-9.043-14.18-17.502 7.452-5.743.846 1.15a4.336 4.336 0 0 0 3.327 1.74l5.78.206 16.27 5.27a.711.711 0 0 1 .267.765 1.46 1.46 0 0 1-1.244 1.274l-.058-.003-7.521-.632-.202-.015h-.168a4.402 4.402 0 0 0-3.095 7.517l11.132 11.122.423.422.528.28.117.063.067.035.536.285.597.113 11.479 2.168a1.308 1.308 0 0 1 .964 1.46zm69.002-33.707a1.999 1.999 0 0 0-.764-1.34l-14.746-11.365a2 2 0 0 0-2.789.343l-5.254 6.635a2 2 0 0 0 .347 2.825l1.104.85-.876 1.192a.355.355 0 0 1-.271.143l-6.287.224a.366.366 0 0 0-.099.018L81.505 73.1a4.609 4.609 0 0 0-2.906 5.083 5.436 5.436 0 0 0 5.207 4.733q.196 0 .393-.017l7.522-.632.034-.001a.402.402 0 0 1 .267.688L80.891 94.076l-.183.097-11.48 2.169a5.3 5.3 0 0 0-4.2 5.792l.01.1A5.224 5.224 0 0 0 70.16 107a5.044 5.044 0 0 0 .7-.05l16.324-2.287.053-.018 17.675-9.749.045-.037 14.734-18.186a1.946 1.946 0 0 0 2.622-.432l5.254-6.635a1.998 1.998 0 0 0 .417-1.485zm-25.662 23.636L85.927 100.8l-15.62 2.19a1.051 1.051 0 0 1-.146.01 1.236 1.236 0 0 1-1.144-1.17l-.01-.098a1.308 1.308 0 0 1 .964-1.46l11.479-2.168.597-.113.536-.285.067-.035.117-.062.528-.28.423-.423L94.85 85.784a4.402 4.402 0 0 0-3.094-7.517l-.202.001-.167.014-7.522.632-.058.002a1.46 1.46 0 0 1-1.244-1.273.711.711 0 0 1 .266-.766l16.271-5.27 5.78-.206a4.356 4.356 0 0 0 3.35-1.77l.823-1.119 7.451 5.743z"></path>
  <path d="M73.806 33.446c-2.372-.187-4.788.278-5.12.795a7.72 7.72 0 0 1-1.515 4.538 5.29 5.29 0 0 1-1.654 1.153c-.15.077-.361.184-.488.261a33.163 33.163 0 0 0 3.406-.014c3.773-.14 8.469-.31 11.037 2.35a6.58 6.58 0 0 1 1.669 5.279 3.995 3.995 0 0 1-1.34 2.616 6.33 6.33 0 0 1-4.774 1.357l-.234-.011a32.382 32.382 0 0 1-6.102-.62c-3.542-1.065-6.49-1.823-9.45-1.073a8.203 8.203 0 0 0-5.931 6.808c-.31 3.14.448 4.83 2.614 5.828l.383.178a7.858 7.858 0 0 0 3.808 1.108c.872-.151 4.704-.661 7.152 1.563a6.266 6.266 0 0 1 1.819 5.575 2.666 2.666 0 0 0 .393.998 9.002 9.002 0 0 1 .607 1.362 13.605 13.605 0 0 1 .519 3.857 13.555 13.555 0 0 0 .202 2.31 8.184 8.184 0 0 0 1.91 4.037c.518.533 1.57-.086 2.15-.503.35-.25.71-.517 1.071-.795a9.58 9.58 0 0 1-1.303-3.68 8.584 8.584 0 0 1 5.523-9.389l2.002-.65a26.637 26.637 0 0 1 1.632-2.24c.418-.528.813-1.027 1.161-1.533.187-.272.423-.563.672-.866.179-.219.439-.535.61-.79a8.873 8.873 0 0 0-1.403-.668 6.988 6.988 0 0 1-4.173-3.524 5.16 5.16 0 0 1-.157-4.373 4.026 4.026 0 0 1 2.764-2.24 5.497 5.497 0 0 1 3.198.36 7.158 7.158 0 0 0 .71.222 5.856 5.856 0 0 1-.606-1.467 4.56 4.56 0 0 1 4.703-5.561 6.416 6.416 0 0 1 3.204 1.298 4.713 4.713 0 0 0 1.212.659 5.983 5.983 0 0 0 3.233-.428 18.23 18.23 0 0 1 1.862-.509 39.1 39.1 0 0 0-23.126-23.555c-.318.4-.234 1.39.022 2.895l.054.32c.218 1.316.624 3.766-.69 5.41a3.645 3.645 0 0 1-2.735 1.351c-.112.008-.237.007-.364.008a2.13 2.13 0 0 1-.137-.007zm-43.615 8.55a.634.634 0 0 0 .132.147c-.002-.028.835-.1 2.973-2.634a14.127 14.127 0 0 1 5.411-3.665l.797-.37A4.172 4.172 0 0 0 42 33.238a6.221 6.221 0 0 0-.033-2.895c-.04-.24-.081-.553-.126-.903a29.456 29.456 0 0 0-.203-1.385 39.175 39.175 0 0 0-11.97 13.45 1.98 1.98 0 0 1 .523.492z"></path>
  <path d="M94.85 51.872a7.625 7.625 0 0 1-2.572-1.227 3.89 3.89 0 0 0-1.223-.647.543.543 0 0 0-.472.201.537.537 0 0 0-.117.47 5.553 5.553 0 0 0 .288.576c.466.86 1.555 2.871-.004 4.661a4.28 4.28 0 0 1-3.803 1.134 7.515 7.515 0 0 1-1.794-.45 4.263 4.263 0 0 0-.944-.253.898.898 0 0 0 .027.937c.453.905.945 1.134 2.11 1.61a11.124 11.124 0 0 1 2.43 1.262 3.603 3.603 0 0 1 1.59 2.481c.218 1.661-.839 2.967-1.625 3.926l8.377-2.713a4.63 4.63 0 0 1 1.1-.205L100 63.57a6.04 6.04 0 0 1 1.196-3.51c.036-.05.062-.104.1-.152l1.642-2.073a38.95 38.95 0 0 0-1.023-6.956 11.46 11.46 0 0 0-1.782.464 9.709 9.709 0 0 1-5.284.528zm-67.978 8.292A6.036 6.036 0 0 1 28 63.57l1.694.06a4.581 4.581 0 0 1 1.133.192l.547.177a6.716 6.716 0 0 1-.508-1.889 29.985 29.985 0 0 1-.077-5.66c-.154-1.506-3.175-2.01-4.967-2.07a2.01 2.01 0 0 1-.401-.053 39.129 39.129 0 0 0-.357 3.51l1.64 2.073c.064.08.11.171.17.254z"></path>
  <path d="M34.791 56.408a1.994 1.994 0 0 1-.005.223 26.056 26.056 0 0 0 .054 5.025c.158 1.389 1.372 2.43 2.78 3.635.417.358.859.738 1.292 1.15l8.93 2.893a8.584 8.584 0 0 1 5.523 9.39 9.44 9.44 0 0 1-7.86 8.096l3.636 3.632 5.69 1.075a17.57 17.57 0 0 1 12.898 1.085c.251-.07.497-.152.757-.2l10.372-1.96 3.636-3.632a9.087 9.087 0 0 1-3.796-1.504c-.508.4-1.013.783-1.497 1.131a7.018 7.018 0 0 1-4.024 1.479 4.54 4.54 0 0 1-3.326-1.434 12.06 12.06 0 0 1-2.954-5.984 16.75 16.75 0 0 1-.29-3.02 10.304 10.304 0 0 0-.32-2.742 5.879 5.879 0 0 0-.36-.77 5.576 5.576 0 0 1-.822-3.237 2.562 2.562 0 0 0-.527-2.217c-.9-.817-3.002-.735-3.824-.574a2.285 2.285 0 0 1-.23.033 11.256 11.256 0 0 1-5.903-1.463l-.372-.173c-3.738-1.723-5.394-5.038-4.92-9.854a12.208 12.208 0 0 1 8.93-10.29c4.27-1.082 8.327.14 11.588 1.12a31.256 31.256 0 0 0 5.144.453l.244.013c1.347.072 1.835-.252 1.923-.373a2.535 2.535 0 0 0-.564-2.108c-1.328-1.375-5.191-1.234-8.012-1.13-3.514.129-6.289.231-7.471-1.817-1.043-1.805.188-3.767.592-4.413a4.66 4.66 0 0 1 1.99-1.575 7.03 7.03 0 0 0 .508-.276 4.057 4.057 0 0 0 .491-2.074 2.773 2.773 0 0 1 .031-.283h-.004c.58-4.584 7.403-4.42 9.225-4.293a7.416 7.416 0 0 0-.158-2.108l-.051-.303a9.87 9.87 0 0 1 .064-4.785A39.045 39.045 0 0 0 64.001 21c-.449 0-.893.018-1.337.033.031.411.031.791.029 1.083l-.001.177c.01 1.429.023 3.593-1.785 5.083a8.645 8.645 0 0 1-2.573 1.352c-.278.105-.556.21-.82.33a12.032 12.032 0 0 0-3.5 2.14l-.062.063a2 2 0 0 1-3.819.994c-.393-.883-.536-2.269 1.022-3.857a15.34 15.34 0 0 1 4.693-2.976c.344-.158.703-.296 1.065-.434a5.548 5.548 0 0 0 1.448-.697c.317-.262.337-1.016.331-1.976l.001-.232a11.81 11.81 0 0 0-.012-.715 38.714 38.714 0 0 0-13.483 4.469 15.873 15.873 0 0 1 .611 3.098c.036.285.068.54.102.738a9.63 9.63 0 0 1-.132 4.876 8.118 8.118 0 0 1-4.568 4.544c-.279.132-.558.26-.835.387a10.675 10.675 0 0 0-4.022 2.609c-1.589 1.882-3.711 4.026-6.119 4.026-.048 0-.097 0-.147-.003a3.815 3.815 0 0 1-2.214-.813 38.694 38.694 0 0 0-1.678 5.098c5.275.239 8.485 2.473 8.595 6.011Z"></path>
</svg>
