<svg xmlns="http://www.w3.org/2000/svg" enable-background="new 0 0 68 68" viewBox="0 0 68 68" id="website">
  <path d="M45.6420975 9.6136103c.8461227 1.7242317 1.5876274 3.6260395 2.2266655 5.6617126 2.7192039-1.3073263 5.2640228-3.0008106 7.5547256-5.0604563-4.1762238-3.766809-9.2065201-6.3520813-14.7385979-7.5257368C42.5169945 4.332521 44.1969948 6.6566405 45.6420975 9.6136103zM46.4890671 18.2040863c-3.6120987 1.4186516-7.4655457 2.21175-11.4217873 2.3336296v5.9913292h12.928772C47.6732101 23.5872536 47.1626968 20.7963943 46.4890671 18.2040863zM43.7248497 10.5521698c-2.4306908-4.9740124-5.471302-7.9281158-8.6575699-8.4712658v16.3232327c3.7584724-.1234436 7.4157104-.897131 10.8372726-2.2664051C45.282711 14.1209488 44.5558624 12.2453289 43.7248497 10.5521698zM27.3145237 2.6895208c-5.4989891 1.1677272-10.5364494 3.7399063-14.7378178 7.5265188 2.2873802 2.0587988 4.8325253 3.7526083 7.5541382 5.0604553C21.5278053 10.826025 23.8118629 5.8315578 27.3145237 2.6895208zM22.0951881 16.1387081c3.4203873 1.3680382 7.0782795 2.1419201 10.837532 2.2654285V2.0809035c-3.1862679.5431502-6.2268143 3.4971237-8.6570492 8.4697037C23.4442692 12.2447424 22.7172241 14.1211443 22.0951881 16.1387081zM51.5887375 38.6745529V28.6636028h-2.412323H18.8235836h-2.4123211v10.0109501h2.3586445 30.4601841H51.5887375zM26.5450058 36.682785h-1.4503746l-1.4273167-4.1243057-1.4278374 4.1243057h-1.4503765l-2.0847244-6.0274143h1.3143597l1.4955845 4.5544338 1.4955196-4.5544338h1.3144264l1.4955196 4.5544338 1.4955845-4.5544338h1.3143616L26.5450058 36.682785zM36.8778877 36.682785h-1.4503746l-1.4273186-4.1243057L32.572422 36.682785h-1.4503746l-2.0847912-6.0274143h1.3144264l1.4955196 4.5544338 1.4955864-4.5544338h1.3143578l1.4955864 4.5544338 1.4955177-4.5544338h1.3144264L36.8778877 36.682785zM45.7604599 36.682785l-1.4273186-4.1243057L42.905304 36.682785h-1.4503746l-2.0847244-6.0274143h1.3143578l1.4955864 4.5544338 1.4955177-4.5544338h1.3144264l1.4955215 4.5544338 1.4955826-4.5544338h1.3143616l-2.0847244 6.0274143H45.7604599zM46.4218407 50.027359c.7594185-2.8701363 1.3191147-5.9838371 1.6403923-9.2182465H35.0672798v6.9094963C39.000721 47.8397751 42.8311081 48.6256409 46.4218407 50.027359zM21.5106087 18.2052593c-.6735001 2.5921116-1.1838837 5.382515-1.5066586 8.3237858h12.9287701v-5.9913292C28.9755688 20.4158363 25.1214027 19.6225433 21.5106087 18.2052593z"></path>
  <path d="M50.1315193 26.5290451h2.524498c.5894012 0 1.067276.4778786 1.067276 1.0672779v5.005476H65.981041c-.3392563-7.8933296-3.5128212-15.2476788-9.0264664-20.907568-2.5655327 2.3240547-5.4227066 4.2238426-8.4859238 5.6576729C49.2282677 20.2010002 49.7862053 23.2844105 50.1315193 26.5290451zM53.7232933 34.7363586v5.0054741c0 .5894012-.4778748 1.0672798-1.067276 1.0672798h-2.4609184c-.341732 3.5741196-.9454651 6.9564018-1.7893066 10.0651512 3.038723 1.415329 5.8730316 3.2887344 8.4186974 5.5774155C62.583065 50.5962372 65.8168869 42.9477081 66 34.7363586H53.7232933zM40.6874962 65.3102798c5.5369644-1.1750259 10.4937172-3.7470741 14.5932693-7.3871155-2.2736359-2.0236893-4.7944183-3.6887703-7.485611-4.9755135C46.383213 57.3662682 44.1474228 62.2079773 40.6874962 65.3102798zM14.2767048 27.596323c0-.5893993.4778786-1.0672779 1.0672789-1.0672779h2.5244951c.3452511-3.2439842.9029922-6.3268719 1.6624775-9.175642-3.066082-1.4344826-5.9237108-3.334856-8.4857273-5.6583252-5.5153394 5.6669235-8.6848011 13.013586-9.0259476 20.9067211h12.2574234V27.596323zM35.0672798 49.8520622v16.067028c5.5174866-.9401855 9.0867233-8.4752388 10.7604713-13.8295479C42.4289246 50.7383766 38.7983894 49.974659 35.0672798 49.8520622zM32.9327202 65.9190903v-16.067028c-3.7311115.1225967-7.3616447.8863144-10.7604694 2.2374802C23.8433266 57.4353828 27.4096947 64.9779892 32.9327202 65.9190903zM21.5781593 50.027359c3.5907326-1.4017181 7.4211197-2.1875839 11.3545609-2.3087502v-6.9094963H19.9377651C20.2590427 44.0435219 20.8187389 47.1572227 21.5781593 50.027359zM17.8049011 40.8091125h-2.4609175c-.5894003 0-1.0672789-.4778786-1.0672789-1.0672798v-5.0054741H2c.1831129 8.210701 3.4164782 15.8588371 9.1755772 21.7153206 2.5456657-2.288681 5.3799744-4.1620865 8.4186325-5.5774155C18.7503662 47.7655144 18.1466331 44.3832321 17.8049011 40.8091125zM20.2048454 52.9476509c-2.6911926 1.2867432-5.2121048 2.951889-7.4856749 4.9755783 4.0324564 3.5849342 8.9955263 6.199131 14.5933332 7.3870506C23.8560944 62.2111702 21.6193943 57.374279 20.2048454 52.9476509z"></path>
</svg>
