<svg xmlns="http://www.w3.org/2000/svg" viewBox="0 0 2500 2500" id="Easy">
  <path d="M2316.79 1165.78h-998.67c2.86-25.9 6.34-53.11 11.38-84.72 28.24-176.57 41.71-356.76 40.1-535.56l-.31-34.23c.09-85.85-54.96-160.62-133.78-181.8-56.4-15.16-114.9-3.85-160.52 31.06-45.82 35.08-72.11 88.03-72.16 145.51l.06 13.32c.42 156.8-62.03 308.31-171.39 415.65-45.39 44.53-85.77 75.13-127.18 96.27-68.09 34.81-130.37 81.17-183.76 136.23-12.01-63.66-68.04-112-135.15-112h-247.83C61.73 1055.51 0 1117.21 0 1193.02v1019.47C0 2288.31 61.73 2350 137.57 2350h247.83c75.84 0 137.57-61.69 137.57-137.5v-73.24c130.45 133.35 310.51 210.75 498.62 210.75h599.94c101.03 0 183.21-82.14 183.21-183.13 0-42.8-15.37-81.7-40.07-112.92 90.81-10.8 161.73-87.33 161.73-180.96 0-50.93-20.98-96.98-54.66-130.2 60.54-29.93 102.63-91.72 102.63-163.68 0-16.37-2.86-31.96-6.91-47.07h349.31c101.03 0 183.21-82.15 183.21-183.13s-82.18-183.14-183.21-183.14zM450.52 2212.5c0 35.9-29.21 65.09-65.12 65.09h-247.83c-35.92 0-65.12-29.19-65.12-65.09v-1019.47c0-35.9 29.21-65.09 65.12-65.09h247.83c35.91 0 65.12 29.19 65.12 65.09v1019.47zm1171.01 65.09h-202.75c-61.07 0-110.77-49.67-110.77-110.71s49.69-110.74 110.77-110.74h202.75c61.07 0 110.77 49.67 110.77 110.74s-49.69 110.71-110.77 110.71zm121.63-293.87h-202.74c-61.07 0-110.77-49.67-110.77-110.71s49.7-110.72 110.77-110.72h202.74c61.1 0 110.79 49.68 110.79 110.72s-49.69 110.71-110.79 110.71zm48-293.85h-202.74c-61.07 0-110.77-49.67-110.77-110.74s49.69-110.72 110.77-110.72h202.74c61.08 0 110.77 49.67 110.77 110.72s-49.69 110.74-110.77 110.74zm525.63-230.23h-387.91c-33.62-38.66-82.56-63.64-137.72-63.64h-202.74c-101.03 0-183.21 82.14-183.21 183.13 0 50.93 20.97 96.98 54.65 130.22-60.54 29.92-102.65 91.7-102.65 163.66 0 42.79 15.37 81.68 40.06 112.89-90.8 10.8-161.69 87.37-161.69 180.99 0 41.78 14.61 79.87 38.26 110.71h-252.24c-195.04 0-380.58-92.84-498.62-248.95h0v-753.09h0c56.91-75.08 130.8-137.08 214.35-179.77 48.11-24.58 94.15-59.26 144.96-109.1 123.16-120.93 193.55-291.33 193.07-467.53l-.06-13.21c.03-34.6 15.99-66.65 43.75-87.89 28.02-21.44 62.68-28.11 97.66-18.64 46.47 12.51 80.2 59.52 80.15 112.19l.31 34.59c1.59 174.73-11.6 350.85-39.2 523.46-7.92 49.73-13.04 90.88-16.04 129.53l-22.36 286.38c0 170.54-138.81 309.29-309.43 309.29-20.01 0-36.22 16.21-36.22 36.21s16.22 36.21 36.22 36.21c210.58 0 381.88-171.22 381.77-378.88l19.62-250.18h1005.27c61.07 0 110.77 49.68 110.77 110.72s-49.69 110.71-110.77 110.71zM1908.58 508.86c3.77 1.25 7.56 1.81 11.3 1.81 15.22 0 29.4-9.67 34.41-24.92l94.61-288.25c6.25-19.01-4.1-39.46-23.12-45.69-19.1-6.25-39.48 4.16-45.71 23.11l-94.61 288.25c-6.25 19.01 4.1 39.46 23.12 45.69zM2062.42 812.78c-6.25 19.01 4.1 39.46 23.13 45.69l288.38 94.56c3.77 1.25 7.56 1.81 11.3 1.81 15.23 0 29.4-9.67 34.41-24.92 6.25-19.01-4.1-39.46-23.12-45.69l-288.38-94.56c-18.99-6.34-39.45 4.12-45.71 23.11zM2048.47 628.97c6.37 12.59 19.13 19.86 32.35 19.86 5.49 0 11.09-1.25 16.33-3.9l270.81-136.94c17.86-9.03 24.99-30.81 15.96-48.66-9.03-17.82-30.85-25.06-48.67-15.95l-270.81 136.94c-17.86 9.02-24.99 30.8-15.96 48.65zM1676.04 506.85c6.37 12.59 19.13 19.86 32.35 19.86 5.49 0 11.09-1.25 16.33-3.9 17.86-9.03 24.99-30.8 15.96-48.65l-137.03-270.68c-9.03-17.82-30.85-24.97-48.67-15.95-17.86 9.03-24.99 30.81-15.96 48.66l137.03 270.68z" fill="#000000" class="color000000 svgShape"></path>
  <path d="m261.5,1988.86c-20.01,0-36.22,16.2-36.22,36.21v120.33c0,20,16.21,36.21,36.22,36.21s36.22-16.21,36.22-36.21v-120.33c0-20-16.22-36.21-36.22-36.21Z" fill="#000000" class="color000000 svgShape"></path>
</svg>
