<svg xmlns="http://www.w3.org/2000/svg" enable-background="new 0 0 80 80" viewBox="0 0 80 80" id="business-investor">
  <path d="M35.5309792 36.1296806c.1289063-.3935547-.0869141-.8164063-.4814453-.9443359-.3876953-.1289063-.8164063.0869141-.9443359.4814453-.279583.8576622-1.2280159 1.2822876-2.0419922.9599609-.3837891-.1523438-.8203125.0351563-.9736328.4208984C30.4930668 38.5542068 34.5959511 39.0123863 35.5309792 36.1296806zM26.4684792 29.7566319c.4091797 0 .7441406-.3291016.75-.7392578.0190296-1.3448391-2.7254658-.8692245-3.5820313 1.0576172-.1679688.3789063.0029297.8222656.3808594.9902344.3805599.1678944.8227406-.0036659.9902344-.3808594.2402344-.5400391.8398438-.9277344 1.4316406-.9277344C26.4479713 29.7556553 26.4606667 29.7566319 26.4684792 29.7566319zM25.5378151 31.4314365c-.203125.7294941.2255859 1.4755878.9755859 1.7001972 1.3543377.4005775 2.2476254-1.1918564 1.3398438-2.165041C27.1270828 30.1878681 25.8385506 30.3541718 25.5378151 31.4314365zM34.325901 29.2380772c1.1457977 0 1.7242355-1.3737926.9296875-2.2255859-.7232628-.7756157-2.0139999-.6139336-2.3154297.4658203C32.6865807 28.3877792 33.4149399 29.2380772 34.325901 29.2380772zM32.1510963 31.9978428c.0908203 0 .203125.0615253.2363281.1416035s-.0009766.2119141-.0683594.2666016c-.3222656.2597656-.3720703.7324219-.1113281 1.0546875.7307053.904911 2.1238289-.5400391 1.5664063-1.8916035-.5608902-1.3674126-2.5623779-1.4006367-2.4443359-.2421875C31.3717995 31.7390537 31.7516823 32.0486259 32.1510963 31.9978428zM46.6882057 47.3288994c1.6803818-1.3372498 4.4698792-.2597237 4.4023438 1.6279297-.015625.4140625.3076172.7617188.7216797.7763672.0087891.0009766.0185547.0009766.0283203.0009766.4013672 0 .7333984-.3173828.7480469-.7226563.0647583-1.7245865-1.2536354-3.3218727-3.2833252-3.6918335l.0460205-.8150024c.0234375-.4130859-.2919922-.7675781-.7060547-.7919922-.4101563-.0341797-.7675781.2919922-.7919922.7060547l-.048584.8612061c-.7600098.1082764-1.4708252.4124756-2.0529785.8770752-2.6823616 2.1446152-1.0686455 6.2067146 2.6259766 6.3408203 1.4208984.0527344 2.5429688 1.0478516 2.5009766 2.21875-.0439453 1.1796875-1.2080078 2.0947266-2.6582031 2.0449219-1.3480492-.0514946-2.5609932-.9865227-2.5146484-2.2333984.015625-.4140625-.3076172-.7626953-.7207031-.7773438-.4101563-.0517578-.7626953.3066406-.7773438.7207031-.0641861 1.721199 1.2218208 3.2593651 3.1263428 3.6791992l-.0472412.8374023c-.0231857.4274254.3152733.7919922.75.7919922.3945313 0 .7255859-.3085938.7480469-.7080078l.0480957-.8522949c1.9401245-.215332 3.4771118-1.6454468 3.5437012-3.4475098.0732422-1.9980469-1.6962891-3.6904297-3.9443359-3.7724609-1.343647-.0513268-2.5611115-.9810944-2.5146484-2.2333984C45.9382057 48.2205009 46.2116432 47.7097588 46.6882057 47.3288994zM26.1188698 46.088665c-.1816406-.3710938-.6328125-.5283203-1.0029297-.3427734-1.3144531.6445313-2.46875 1.6425781-3.3398438 2.8876953-.2373047.3388672-.1552734.8066406.1845703 1.0439453.340765.2390442.808857.1530724 1.0439453-.1845703.7265625-1.0371094 1.6845703-1.8671875 2.7714844-2.4013672C26.1481667 46.9099541 26.301487 46.4597588 26.1188698 46.088665zM21.473362 50.6599541c-.3935547-.1191406-.8144531.1005859-.9375.4960938-.1777344.5771484-.2958984 1.1689453-.3496094 1.7578125-.0393009.4374886.3034973.8183594.7480469.8183594.3837891 0 .7099609-.2929688.7460938-.6816406.0439453-.4853516.1416016-.9746094.2890625-1.453125C22.091526 51.2019463 21.8698463 50.7820244 21.473362 50.6599541z"></path>
  <path d="M65.2546082,55.1764946c0.669632-1.7941551-0.5282059-3.4383659-1.9384727-3.6796265
		c-0.424366-0.0753479-0.7980728-0.1480064-1.2198486-0.1098022c-0.8356934-3.2047729-2.4169922-6.0818481-5.071167-9.2056274
		c-1.3285599-1.5651627-2.9745789-3.2042389-4.7305298-4.2695313c0.5365639-0.6033134,1.3234558-0.7446213,1.9785767-0.4921875
		c1.0588264,0.4015274,2.293808,2.1811218,4.4453125,2.0810547c1.2207031-0.0449219,2.2949219-0.7734375,2.6738281-1.8125
		c0.1425781-0.3886719-0.0576172-0.8193359-0.4472656-0.9609375c-0.3896484-0.1425781-0.8193359,0.0585938-0.9609375,0.4472656
		c-0.8756332,2.3964653-4.4591331-0.8833046-5.1777344-1.1572266c-0.8004379-0.3057861-1.7476807-0.3112526-2.6594238,0.1542358
		c1.1050758-1.2057114,3.7357979-1.7189102,4.1906738-4.0682983c0.28125-1.4482441-0.5654297-2.7138691-1.3808594-3.7861347
		c-0.4453125-0.5859375-0.9511719-1.25-1.6728516-1.7109375c-0.9023438-0.578125-1.9726563-0.6708984-2.7871094-0.2382813
		c-1.5173645,0.7975121-1.2755203,2.5451775-3.2871094,1.3173828c-0.7557526-0.4805851-1.4664421-0.975605-2.3544922-1.0527344
		c-0.8535156-0.0839844-1.9902344,0.5078125-2.3876953,1.2246094c-0.2490234,0.4472656-0.2226563,0.9482422,0.0693359,1.3369141
		c0.8955078,1.1953125,1.8203125,2.4306641,2.1669922,3.8378925c0.3374634,1.3740234,0.1744995,2.5932617-0.4343872,3.5689697
		c-0.906311-0.2455444-2.2820435-0.4329834-3.5812378-0.3189697c1.8982315-3.8867416,1.3161201-8.6323433-1.0474243-11.9814472
		c2.6728439-1.4924946,2.8412552-2.2260704,3.0620728-2.4296875c0.8544922-1.2363281,1.1171875-3.21875-0.0800781-4.4589844
		c-1.0810547-1.109375-2.8105469-1.078125-4.0410156-0.5566406c-0.9328613,0.3886719-1.6886597,1.010376-2.4187012,1.6130981
		c-0.1663208-1.6710205-0.4918823-3.9211416-0.9504395-5.3347769c-1.6358681-5.0470409-5.6247692-6.0515575-10.7587891-4.6347656
		c-2.7451172,0.7587891-5.3984375,1.8457031-7.8857422,3.2294922c-3.8096638,2.1176052-5.3960991,5.0206976-3.2070313,8.7695303
		c0.600769,1.0296631,1.5921631,2.4876709,2.6099854,3.5963745c-3.6343403,2.3640594-3.574173,7.3447151,0.0924072,9.7011127
		c-0.0144653,0.0429688-0.0385132,0.0808716-0.045166,0.1273193c-0.2881985,1.9970665,1.7685947,3.8916626,4.0239258,3.4448242
		c1.2663574,1.7988892,3.0463867,3.2664185,5.0172729,4.2469482c-3.6184692,1.3657837-6.8415527,4.7084961-8.4347534,7.838501
		c-3.2013683,6.2952118-1.8463745,14.7633705,0.7626953,17.8837852c2.5090313,3.0041199,5.9681873,2.6773987,6.1279297,2.7128906
		c1.9203377,0.0447769,5.232151,0.1370926,6.4375-1.3664551c2.3096924,1.494751,4.1886597,2.1735229,6.8466797,2.8811035
		c1.2785988,0.3405304,2.7987518,0.5577164,4.9785156,0.5185547c1.4205322-0.0220337,2.5949097-0.9251709,3.59375-1.8256836
		c3.0862389,0.7709045,6.1309471,0.2268906,8.5491943-1.1014404c0.0668335,0.1141968,0.1530762,0.2178955,0.2779541,0.2855225
		c3.4068413,1.8479004,7.8192406,0.2681046,9.1359863-3.6201172c2.8274879-0.1938324,4.3743477-2.1953773,4.2946739-4.1074181
		c-0.0380859-0.9150391-0.4853516-1.765625-1.1533203-2.3212891C67.7167816,57.8443451,66.9830475,55.7831879,65.2546082,55.1764946
		z M65.0949402,58.6488457c-0.2974396,0.0183105-1.6392593,0.5779419-3.8305626,0.6468506
		c-0.007019,0.0002441-0.0126343,0.0042114-0.0195923,0.0046387c-0.3080673-0.0185814-0.5143089,0.2074394-1.0263062-0.0993652
		c-1.0289841-0.6137161-0.3096771-1.7101593,0.3720703-1.71875c0.0448608-0.0006104,0.0834961-0.019165,0.1260986-0.0273438
		c1.3134575,0.1992111,2.6673088-0.0641785,3.6373863-0.9539795c0.0350952,0.0062256,0.06604,0.0230713,0.1027222,0.024292
		c0.5283203,0.0166016,1.0439453,0.4736328,1.1269531,0.9951172C65.6498718,57.9360771,65.434967,58.3874321,65.0949402,58.6488457z
		 M63.0632057,52.9753838c0.4746094,0.0810547,0.8818359,0.6103516,0.8886719,1.1552734
		c0.0068359,0.5615234-0.3632813,1.1669922-0.921875,1.5058594c-1.0346489,0.6305199-2.6010551,0.3950348-3.0527344-0.0566406
		c-0.1708984-0.1708984-0.2226563-0.4257813-0.1552734-0.5390625c0.1552162-0.2609444,0.7001457-0.2062073,1.2783203-0.5800781
		c0.6907158-0.4434242,0.7850456-1.2469254,0.9990234-1.5322266c0.0292969-0.0400391,0.1103516-0.0546875,0.2138672-0.0546875
		C62.509285,52.8738213,62.8049088,52.9273872,63.0632057,52.9753838z M43.8737526,28.4763584
		c1.2474861-1.0710125,2.1370354,0.7084904,3.9754028,1.0724487c0.0160522,0.0131836,0.0247803,0.0317383,0.0421753,0.0437622
		c0.5927734,0.4091797,0.9257813,1.1904297,0.8105469,1.9013672c-0.0736732,0.4528694,0.275032,0.8701191,0.7412109,0.8701191
		c0.3613281,0,0.6796875-0.2617188,0.7392578-0.6298847c0.1416626-0.8684692-0.0855103-1.767395-0.5752563-2.4890137
		c0.7403793-0.4824028,1.1111107-1.2973061,1.5899048-1.5510254c0.3798828-0.1992188,0.9169922-0.0566406,1.2792969,0.1757813
		c0.4970703,0.3173828,0.8984375,0.8457031,1.2871094,1.3554688c0.6464844,0.8505859,1.2646484,1.7519531,1.1015625,2.5927734
		c-0.3589859,1.8592777-3.8526115,2.1264782-4.6282349,4.7006245c-1.2684937,0.3759155-2.9116821,0.3678589-4.2455444-0.0231323
		c0.4360352-1.1314697,0.5109253-2.4318237,0.1696777-3.8220215C45.7604713,31.0515537,44.7780495,29.6863194,43.8737526,28.4763584
		z M17.2966042,13.0388594c2.3837891-1.3261719,4.9257813-2.3671875,7.5576172-3.0947266
		c4.265358-1.1756783,7.52808-0.6781244,8.9316406,3.6523438c0.2419434,0.7461548,0.4608154,1.8509521,0.6339111,3.0010977
		c-6.4555054-1.9178457-14.4703369,0.8983154-18.6389771,4.8654175c-0.4263916-0.5942993-0.8190918-1.1976318-1.1248169-1.7210083
		C12.8925152,16.720253,14.2637396,14.7267923,17.2966042,13.0388594z M15.5426979,26.5115147
		c1.0282097-1.4371414,2.5814743-1.8649521,4.0874023-2.2075806c3.8600464-0.6728973,7.8079281,0.889492,13.9425659-2.2936401
		c3.0956001-1.5909939,4.0083771-3.1130867,5.5911255-3.7722168c0.7392578-0.3134766,1.7998047-0.3808594,2.3828125,0.21875
		c0.6162109,0.6386719,0.4453125,1.8027344-0.0761719,2.5595703c-0.6279297,0.9003906-1.6933594,1.4931641-2.71875,2.0644531
		c-5.3310204,2.9140358-7.0929718,1.0669518-12.6012573,1.6956787c-2.3081646,0.2601147-4.8130493,1.1823864-6.2297974,3.0220947
		c-0.7065487,0.922987-1.0343533,1.9785423-1.4013672,3.078125c-0.6672535,1.9147282-0.6478214,2.6925335-2.421875,1.0341797
		C14.5258894,30.4196415,14.3896923,28.116291,15.5426979,26.5115147z M21.0544167,36.2234306
		c-0.1913147-0.292366-0.7369366-0.4997368-1.0810547-0.3798828c-1.1944466,0.4193459-2.5137272-0.5824356-2.4769897-1.5375977
		c2.3820419,0.0712814,2.1486073-3.6806221,3.6146851-5.5932636c2.623909-3.4134445,8.9572582-2.4423828,11.6650391-2.4423828
		c2.1908569,0.0063477,3.8566284-0.4838257,5.522583-1.2762451c2.1096802,2.8513794,2.6408081,6.8458252,1.2762451,10.1219501
		c-1.4287109,3.4277344-4.8720703,5.9609375-8.5703125,6.3017578
		C27.4919167,41.7488213,23.2038307,39.5115166,21.0544167,36.2234306z M23.5534401,68.5495987
		c-0.1622715-0.035141-2.9750957,0.2669144-5.015625-2.1738281c-2.2492294-2.6932182-3.4894457-10.514698-0.5761719-16.2431602
		c1.6864014-3.3109741,5.5614624-7.0654297,9.4679565-7.5905151c4.7698135,1.3062172,9.5064316-0.8593254,12.1954956-4.5123291
		c0.8577881-0.3395996,2.2333374-0.3491821,3.4108276-0.1600952c-2.9448242,2.1126709-5.9776611,4.3040161-8.4609985,7.0959473
		c-3.167017,3.5613518-5.2350903,7.9343796-4.6278687,12.7515259c-0.1652222-0.0618896-0.3252563-0.1345215-0.4807129-0.2182007
		c-0.7204323-1.2915573-3.1357346-0.9507408-4.673645-0.6641846c-0.4072266,0.0761719-0.6757813,0.4677734-0.5996094,0.875
		s0.4677734,0.6777344,0.875,0.5996094c1.8745117-0.3491821,2.730957-0.2327271,2.994751-0.1283569
		c0.0001221,0.0004883,0.0005493,0.0009766,0.0006714,0.0015259c-1.4543858,1.9603043-2.141346,5.0383339-0.9573364,7.2547569
		c0.2663956,0.4997253,1.5648251,1.6494064,1.7753906,2.1025391C28.6745338,68.2947159,26.8815651,68.6345596,23.5534401,68.5495987
		z M41.754612,70.5828018c-1.84375,0.0332031-3.2421875-0.1152344-4.5693359-0.4677734
		c-2.7284546-0.7261353-4.4936523-1.380249-6.8605347-2.9852905c-0.2912521-0.913063-1.6741524-2.0211258-1.8963013-2.3994751
		c-0.8921604-1.6714554-0.2752571-4.131424,0.8677979-5.6598473c1.4743042,0.5947876,3.1981812,0.552124,4.7982178-0.1702271
		c1.5682259-0.7073975,2.0906296-2.3463707,3.0830078-3.1669922c0.3115234-0.2607422,0.7001953-0.3691406,0.9697266-0.2753906
		c0.5123215,0.1807098,0.7901459,1.0576591,0.0244141,2.0322266c-0.4179344,0.5180016-1.9901924,1.723877-1.6152344,2.8759766
		c0.3851624,1.1745186,2.3457336,1.1393051,3.2392578,1.2451172c4.1130676,0.5107231,4.6070747,0.5337029,5.0117188,0.7333984
		c0.4303131,0.2132149,0.5334244,0.5464363,0.1699219,0.8808594c-0.2148438,0.1962891-0.5273438,0.3222656-0.8046875,0.4189453
		c-1.5341797,0.5371056-3.1884766,0.4306602-4.7509766,0.2773438c-0.3671875-0.0498047-0.7304688,0.2177696-0.8076172,0.5947227
		c-0.3128319,1.5055008,3.1967239,0.9855957,5.4111328,1.9199219c2.7302856,1.1460495-1.3055992,2.3015442-4.4736328,0.734375
		c-0.375-0.1865234-0.8212891-0.03125-1.0048828,0.3388672c-0.1835938,0.3720703-0.0322266,0.8212891,0.3388672,1.0048828
		c1.2318535,0.6094666,2.6073799,0.9380035,4.1662598,0.8949585c0.6520729,0.2995605,0.4167709,0.1857376,0.6605225,0.2888184
		C43.0912209,70.1849747,42.4257545,70.5721207,41.754612,70.5828018z M55.2440529,68.2763443
		c0.619812-0.4984741,1.1733398-1.0733643,1.6707153-1.7472534c0,0,0,0,0-0.0009766l0.0126953-0.015625
		c0.2539063-0.3271484,0.1933594-0.796875-0.1328125-1.0507813c-0.3271484-0.2548828-0.7978516-0.1943359-1.0527344,0.1318359
		l-0.1464844,0.1855469c-0.0019531,0.0029297-0.0039063,0.0048828-0.0048828,0.0068359l-0.0205078,0.0244141l0.0009766,0.0009766
		c-1.6234932,2.3614426-5.9241791,4.0541916-10.0061035,2.956604c1.2570457-0.9291229,1.2976952-2.7461624-0.9216309-3.6987915
		c0.4486008-0.1716995,0.9102936-0.3386459,1.3466797-0.7373047c1.1231575-1.0295601,0.8907013-2.6343269-0.5166016-3.3310509
		c-0.6720695-0.3329391-0.9764366-0.3180161-5.4921875-0.8779297c-0.3213005-0.0410194-1.4066582-0.0791855-1.9101563-0.2607422
		c0.2982025-0.4834023,1.0062904-1.0997467,1.2783203-1.4433594c2.2385139-2.8482895-0.6752777-5.8801193-3.1308594-3.8398438
		c-1.6421394,1.3625565-1.636982,3.3564186-4.7252808,3.4000854c-0.742754-4.4859276,1.1949425-8.633213,4.2028198-12.0172729
		c1.9298706-2.1690063,4.2510986-3.9890137,6.598938-5.7044678c0.2107544,0.0560303,0.4199219,0.112915,0.6420898,0.159729
		c-0.2621384,0.9965401-0.0625687,1.904274-0.336731,2.53302c-0.1884766,0.4326172-0.6669922,0.7451172-1.1386719,0.7451172
		c-0.0058594,0-0.0078125,0-0.0117188,0c-0.4121094,0-0.7470703,0.3330078-0.75,0.7451172
		c-0.0029297,0.4140625,0.3310547,0.7519531,0.7451172,0.7548828c0.0058594,0,0.0107422,0,0.0166016,0
		c1.0742188,0,2.0830078-0.6591797,2.5136719-1.6455078c0.4588203-1.0534019,0.1664276-2.1431999,0.4576416-2.9067383
		c2.4700813,0.25914,5.28088-0.0187302,7.4102783-1.2351074c1.3265991,0.885437,2.6488037,2.1071167,4.0393066,3.7443848
		c2.6342773,3.1018677,4.1447144,5.9224854,4.8837891,9.0975952c-0.537674,0.9488564-0.1793098,0.8960876-0.8847656,1.1035767
		c-0.3867188,0.1142578-0.9697266,0.2871094-1.3476563,0.9189453c-0.4123688,0.693531-0.3087349,1.7086525,0.4376831,2.4134521
		c-1.3528824,1.3235245-0.8261833,3.2578812,0.7732544,3.956665c-0.3984375,0.7548828-0.5234375,1.6259766-0.3076172,2.4316406
		c0.2853394,1.0662804,1.1975708,2.1948204,2.3495483,2.6011925C60.6740532,68.3123856,57.7342682,69.3799057,55.2440529,68.2763443
		z M62.5954323,64.3386612c-0.6757813-0.046875-1.4902344-0.8339806-1.7089844-1.6513634
		c-0.1754761-0.65448,0.0875244-1.390625,0.6342163-1.9055176c1.1384888-0.0521851,2.2631836-0.2369995,3.3557091-0.5456543
		C67.1285095,60.8621178,66.3456039,64.5681839,62.5954323,64.3386612z"></path>
</svg>
